<svg width="23.879700" height="23.203613" viewBox="0 0 23.8797 23.2036" fill="none" xmlns="http://www.w3.org/2000/svg" xmlns:xlink="http://www.w3.org/1999/xlink">
	<desc>
			Created with Pixso.
	</desc>
	<defs/>
	<rect id="Cart" rx="-0.500000" width="21.923754" height="21.248100" transform="translate(0.500000 1.455505)" fill="#FFFFFF" fill-opacity="0"/>
	<path id="Vector" d="M3.7 5.26L3.7 5.26L22.41 5.26C22.48 5.26 22.56 5.28 22.63 5.31C22.7 5.34 22.76 5.39 22.8 5.45C22.85 5.51 22.89 5.58 22.9 5.65C22.92 5.72 22.92 5.8 22.91 5.88L21.08 14.61C21.05 14.73 21 14.83 20.91 14.9C20.82 14.97 20.71 15.02 20.6 15.02L6.18 15.02L6.14 15.02L3.7 5.26M3.7 5.26L2.79 1.64C2.74 1.45 2.63 1.27 2.47 1.14C2.31 1.02 2.11 0.95 1.91 0.95L0 0.95M6.18 15.02L6.18 17.28C6.18 17.46 6.21 17.64 6.28 17.81C6.35 17.98 6.45 18.13 6.58 18.26C6.7 18.38 6.86 18.48 7.02 18.55C7.19 18.62 7.37 18.66 7.55 18.66L21.27 18.66" stroke="#898A8D" stroke-opacity="1.000000" stroke-width="1.910996"/>
	<path id="Vector" d="M8.48 21.69C8.48 22.52 7.81 23.2 6.98 23.2C6.15 23.2 5.47 22.52 5.47 21.69C5.47 20.86 6.15 20.19 6.98 20.19C7.81 20.19 8.48 20.86 8.48 21.69ZM19.27 21.69C19.27 22.52 18.59 23.2 17.76 23.2C16.93 23.2 16.26 22.52 16.26 21.69C16.26 20.86 16.93 20.19 17.76 20.19C18.59 20.19 19.27 20.86 19.27 21.69Z" fill="#898A8D" fill-opacity="1.000000" fill-rule="evenodd"/>
</svg>
